<svg width="40" height="40" viewBox="0 0 40 40" fill="none" xmlns="http://www.w3.org/2000/svg">
<path d="M21.5017 20.0045C21.5017 20.9622 20.7254 21.7385 19.7677 21.7385C18.81 21.7385 18.0337 20.9622 18.0337 20.0045C18.0337 19.0469 18.81 18.2705 19.7677 18.2705C20.7254 18.2705 21.5017 19.0469 21.5017 20.0045Z" fill="white"/>
<path d="M39.7844 18.9658V21.0466L20.1323 20.5842V19.4282L39.7844 18.9658Z" fill="white"/>
<path d="M38.4827 27.1885L37.6365 29.0895L19.8707 20.6752L20.3408 19.6191L38.4827 27.1885Z" fill="white"/>
<path d="M33.9524 34.1611L32.4081 35.5558L19.5797 20.661L20.4377 19.8862L33.9524 34.1611Z" fill="white"/>
<path d="M26.988 38.6924L25.0113 39.3422L19.3137 20.5284L20.4119 20.1674L26.988 38.6924Z" fill="white"/>
<path d="M18.6956 40.001L16.626 39.7848L19.1279 20.287L20.2776 20.4071L18.6956 40.001Z" fill="white"/>
<path d="M10.6304 37.8174L8.83106 36.7723L19.1016 20.011L20.1012 20.5917L10.6304 37.8174Z" fill="white"/>
<path d="M4.17285 32.5479L2.95497 30.8607L19.16 19.7334L19.8366 20.6707L4.17285 32.5479Z" fill="white"/>
<path d="M0.428711 25.1494L-0.000105712 23.1133L19.3255 19.5158L19.5638 20.647L0.428711 25.1494Z" fill="white"/>
<path d="M0.0249023 16.7471L0.469239 14.7142L19.5694 19.3625L19.3225 20.4918L0.0249023 16.7471Z" fill="white"/>
<path d="M3.07251 8.97363L4.30881 7.2999L19.8415 19.348L19.1547 20.2778L3.07251 8.97363Z" fill="white"/>
<path d="M8.95483 3.16113L10.7618 2.12929L20.1054 19.4243L19.1015 19.9976L8.95483 3.16113Z" fill="white"/>
<path d="M16.8054 0.200195L18.8766 -8.20212e-05L20.3078 19.6054L19.1572 19.7166L16.8054 0.200195Z" fill="white"/>
<path d="M25.1829 0.719727L27.1547 1.3844L20.439 19.8593L19.3436 19.49L25.1829 0.719727Z" fill="white"/>
<path d="M32.5093 4.54004L34.0434 5.94586L20.4252 20.1222L19.573 19.3412L32.5093 4.54004Z" fill="white"/>
<path d="M37.7373 11.126L38.5622 13.0363L20.3368 20.4023L19.8785 19.341L37.7373 11.126Z" fill="white"/>
</svg>
