<svg width="66" height="77" viewBox="0 0 66 77" fill="none" xmlns="http://www.w3.org/2000/svg">
<path d="M25.8127 28.526C25.8127 28.526 17.6503 34.5536 22.9013 40.3213C29.66 47.8038 36.8347 54.8706 40.162 59.0795C43.1775 62.8727 43.6454 70.7708 38.7063 74.7199C34.1832 78.3572 25.7087 77.8896 18.898 71.5502C12.1393 65.2629 5.43255 57.7284 2.20915 53.5715C-3.09385 46.7126 -0.182399 25.7201 25.8127 28.526Z" fill="black"/>
<path d="M39.3821 48.476C39.3821 48.476 47.5446 42.4484 42.2935 36.6807C35.5348 29.1982 28.3602 22.1314 25.0328 17.9225C22.0173 14.1293 21.5494 6.23118 26.4885 2.2821C31.0117 -1.35521 39.4861 -0.887558 46.2968 5.45176C53.1075 11.7911 59.7103 19.3255 62.9857 23.4305C68.4966 30.3933 65.3252 51.2819 39.3821 48.476Z" fill="black"/>
</svg>
